<?xml version="1.0" encoding="utf-8"?>
<!-- Generator: Adobe Illustrator 25.2.3, SVG Export Plug-In . SVG Version: 6.00 Build 0)  -->
<svg version="1.1" id="Calque_1" xmlns="http://www.w3.org/2000/svg" xmlns:xlink="http://www.w3.org/1999/xlink" x="0px" y="0px"
	 viewBox="0 0 80 80" style="enable-background:new 0 0 80 80;" xml:space="preserve">
<style type="text/css">
	.st0{fill:#FFFFFF;}
</style>
<path class="st0" d="M40,2C19,2,2,19,2,40c0,21,17,38,38,38c21,0,38-17,38-38C78,19,61,2,40,2z M40,75.1C20.6,75.1,4.9,59.4,4.9,40
	C4.9,20.6,20.6,4.9,40,4.9c19.4,0,35.1,15.8,35.1,35.1C75.1,59.4,59.4,75.1,40,75.1z"/>
<path id="XMLID_2081_" class="st0" d="M34.4,62.1h8.9V39.8h6.2l0.7-7.5h-6.9c0,0,0-2.8,0-4.2c0-1.8,0.4-2.5,2.1-2.5
	c1.4,0,4.8,0,4.8,0v-7.7c0,0-5.1,0-6.2,0c-6.6,0-9.6,2.9-9.6,8.5c0,4.9,0,5.9,0,5.9h-4.6v7.6h4.6V62.1z"/>
</svg>
