<?xml version="1.0" encoding="utf-8"?>
<!-- Generator: Adobe Illustrator 25.2.3, SVG Export Plug-In . SVG Version: 6.00 Build 0)  -->
<svg version="1.1" id="Calque_1" xmlns="http://www.w3.org/2000/svg" xmlns:xlink="http://www.w3.org/1999/xlink" x="0px" y="0px"
	 viewBox="0 0 80 80" style="enable-background:new 0 0 80 80;" xml:space="preserve">
<style type="text/css">
	.st0{fill:#FFFFFF;}
</style>
<path class="st0" d="M40,2C19,2,2,19,2,40c0,21,17,38,38,38c21,0,38-17,38-38C78,19,61,2,40,2z M40,75.1C20.6,75.1,4.9,59.4,4.9,40
	C4.9,20.6,20.6,4.9,40,4.9c19.4,0,35.1,15.8,35.1,35.1C75.1,59.4,59.4,75.1,40,75.1z"/>
<g id="XMLID_2024_">
	<path id="XMLID_2076_" class="st0" d="M40,23.6c5.4,0,6,0,8.1,0.1c2,0.1,3,0.4,3.7,0.7c0.9,0.4,1.6,0.8,2.3,1.5
		c0.7,0.7,1.1,1.4,1.5,2.3c0.3,0.7,0.6,1.8,0.7,3.7c0.1,2.1,0.1,2.7,0.1,8.1s0,6-0.1,8.1c-0.1,2-0.4,3-0.7,3.7
		c-0.4,0.9-0.8,1.6-1.5,2.3c-0.7,0.7-1.4,1.1-2.3,1.5c-0.7,0.3-1.8,0.6-3.7,0.7c-2.1,0.1-2.7,0.1-8.1,0.1s-6,0-8.1-0.1
		c-2-0.1-3-0.4-3.7-0.7c-0.9-0.4-1.6-0.8-2.3-1.5c-0.7-0.7-1.1-1.4-1.5-2.3c-0.3-0.7-0.6-1.8-0.7-3.7c-0.1-2.1-0.1-2.7-0.1-8.1
		s0-6,0.1-8.1c0.1-2,0.4-3,0.7-3.7c0.4-0.9,0.8-1.6,1.5-2.3c0.7-0.7,1.4-1.1,2.3-1.5c0.7-0.3,1.8-0.6,3.7-0.7
		C34,23.6,34.6,23.6,40,23.6 M40,20c-5.4,0-6.1,0-8.3,0.1c-2.1,0.1-3.6,0.4-4.9,0.9c-1.3,0.5-2.4,1.2-3.6,2.3
		c-1.1,1.1-1.8,2.2-2.3,3.6c-0.5,1.3-0.8,2.7-0.9,4.9C20,33.9,20,34.6,20,40c0,5.4,0,6.1,0.1,8.3c0.1,2.1,0.4,3.6,0.9,4.9
		c0.5,1.3,1.2,2.4,2.3,3.6c1.1,1.1,2.2,1.8,3.6,2.3c1.3,0.5,2.7,0.8,4.9,0.9C33.9,60,34.6,60,40,60c5.4,0,6.1,0,8.3-0.1
		c2.1-0.1,3.6-0.4,4.9-0.9c1.3-0.5,2.4-1.2,3.6-2.3c1.1-1.1,1.8-2.2,2.3-3.6c0.5-1.3,0.8-2.7,0.9-4.9C60,46.1,60,45.4,60,40
		c0-5.4,0-6.1-0.1-8.3c-0.1-2.1-0.4-3.6-0.9-4.9c-0.5-1.3-1.2-2.4-2.3-3.6c-1.1-1.1-2.2-1.8-3.6-2.3c-1.3-0.5-2.7-0.8-4.9-0.9
		C46.1,20,45.4,20,40,20"/>
	<path id="XMLID_2073_" class="st0" d="M40,29.7c-5.7,0-10.3,4.6-10.3,10.3c0,5.7,4.6,10.3,10.3,10.3c5.7,0,10.3-4.6,10.3-10.3
		C50.3,34.3,45.7,29.7,40,29.7 M40,46.7c-3.7,0-6.7-3-6.7-6.7c0-3.7,3-6.7,6.7-6.7s6.7,3,6.7,6.7C46.7,43.7,43.7,46.7,40,46.7"/>
	<path id="XMLID_2025_" class="st0" d="M53.1,29.3c0,1.3-1.1,2.4-2.4,2.4c-1.3,0-2.4-1.1-2.4-2.4c0-1.3,1.1-2.4,2.4-2.4
		C52,26.9,53.1,28,53.1,29.3"/>
</g>
</svg>
